<svg xmlns="http://www.w3.org/2000/svg" viewBox="0 0 200 200"><defs><radialGradient id="light"><stop stop-color="#e2e2d4"/><stop offset="1" stop-color="#242729"/></radialGradient><pattern id="grain" width="7" height="9" patternUnits="userSpaceOnUse"><circle cx="1" cy="2" r=".4" fill="#fff" opacity=".14"/><circle cx="5" cy="6" r=".3" fill="#000" opacity=".2"/></pattern></defs><rect width="200" height="200" fill="#242729"/><circle cx="99" cy="86" r="61" fill="#b9bcb0"/><circle cx="99" cy="86" r="47" fill="#252e2b"/><g fill="none" stroke="#eee9d8" stroke-width="1.2" opacity=".7"><path d="M31 135 69 58 91 105 119 43 177 135Z"/><path d="m46 132 25-47 20 31 30-50 36 66"/></g><rect x="25" y="134" width="150" height="3" fill="#c1c7b5"/><g stroke="#848f86" stroke-width=".5" opacity=".45"><path d="M22 28h156M22 33h156M22 151h156M22 155h156M22 159h156"/></g><rect width="200" height="200" fill="url(#grain)"/><text x="17" y="18" font-family="Arial,sans-serif" font-size="6" letter-spacing="2" fill="#f5f2db" opacity=".85">LUNO COLLECTION</text><text x="17" y="177" font-family="Arial,sans-serif" font-size="11" font-weight="700" letter-spacing="1" fill="#f3efd9">DEADMAU5</text><text x="17" y="189" font-family="Arial,sans-serif" font-size="5.3" letter-spacing="1.3" fill="#f3efd9" opacity=".7">RAISE YOUR WEAPON</text></svg>